<svg width="41" height="41" viewBox="0 0 41 41" fill="none" xmlns="http://www.w3.org/2000/svg">
<path d="M20.4286 4.71428C11.9107 4.71428 5 11.625 5 20.1429C5 26.9531 9.41964 32.7388 15.5469 34.7879C16.3304 34.9286 16.6116 34.4464 16.6116 34.0446C16.6116 33.6629 16.5915 32.4576 16.5915 31.1719C16.5915 31.1719 12.2924 32.096 11.3884 29.3437C11.3884 29.3437 10.6853 27.5558 9.6808 27.0938C9.6808 27.0938 8.27455 26.1295 9.78125 26.1496C9.78125 26.1496 11.308 26.2701 12.1518 27.7366C13.4978 30.1071 15.7478 29.4241 16.6317 29.0223C16.7723 28.0379 17.1741 27.3549 17.6161 26.9531C14.1808 26.5714 10.5848 25.2455 10.5848 19.3393C10.5848 17.6518 11.1875 16.2857 12.1719 15.2009C12.0112 14.7991 11.4888 13.2321 12.3326 11.1027C13.6183 10.7009 16.5714 12.6897 16.5714 12.6897C17.7969 12.3482 19.1228 12.1674 20.4286 12.1674C21.7344 12.1674 23.0603 12.3482 24.2857 12.6897C24.2857 12.6897 27.2388 10.7009 28.5246 11.1027C29.3683 13.2321 28.846 14.7991 28.6853 15.2009C29.6696 16.2857 30.2723 17.6518 30.2723 19.3393C30.2723 25.2656 26.6562 26.5714 23.221 26.9531C23.7835 27.4353 24.2656 28.3594 24.2656 29.8058C24.2656 31.875 24.2455 33.5424 24.2455 34.0446C24.2455 34.4464 24.5268 34.9286 25.3103 34.7879C31.4375 32.7388 35.8571 26.9531 35.8571 20.1429C35.8571 11.625 28.9464 4.71428 20.4286 4.71428ZM10.846 26.8728C10.8058 26.9531 10.6853 26.9732 10.5848 26.9129C10.4643 26.8527 10.404 26.7522 10.4442 26.6719C10.4844 26.6116 10.5848 26.5915 10.7054 26.6317C10.8259 26.692 10.8862 26.7924 10.846 26.8728ZM11.4688 27.5558C11.3884 27.6362 11.2478 27.596 11.1473 27.4955C11.0469 27.375 11.0268 27.2344 11.1071 27.1741C11.1875 27.0938 11.3281 27.1339 11.4286 27.2344C11.529 27.3549 11.5491 27.4955 11.4688 27.5558ZM12.0714 28.4598C11.9911 28.5201 11.8304 28.4598 11.7299 28.3192C11.6295 28.1786 11.6295 28.0179 11.7299 27.9576C11.8304 27.8772 11.9911 27.9375 12.0714 28.0781C12.1719 28.2188 12.1719 28.3795 12.0714 28.4598ZM12.9152 29.3036C12.8348 29.404 12.654 29.3839 12.5134 29.2433C12.3728 29.1228 12.3326 28.942 12.433 28.8616C12.5134 28.7612 12.6942 28.7812 12.8348 28.9219C12.9554 29.0424 12.9955 29.2232 12.9152 29.3036ZM14.0603 29.8058C14.0201 29.9263 13.8393 29.9866 13.6786 29.9263C13.4978 29.8862 13.3772 29.7455 13.4174 29.625C13.4576 29.5045 13.6384 29.4442 13.7991 29.4844C13.9799 29.5446 14.1004 29.6853 14.0603 29.8058ZM15.3259 29.9062C15.3259 30.0268 15.1853 30.1272 15.0045 30.1272C14.8036 30.1473 14.6629 30.0469 14.6629 29.9062C14.6629 29.7857 14.8036 29.6853 14.9844 29.6853C15.1652 29.6652 15.3259 29.7656 15.3259 29.9062ZM16.4911 29.7054C16.5112 29.8259 16.3906 29.9464 16.2098 29.9866C16.029 30.0268 15.8683 29.9464 15.8482 29.8259C15.8281 29.6853 15.9487 29.5647 16.1295 29.5246C16.3103 29.5045 16.471 29.5848 16.4911 29.7054Z" fill="#FF214F"/>
</svg>
