<svg width="41" height="41" viewBox="0 0 41 41" fill="none" xmlns="http://www.w3.org/2000/svg">
<path d="M15.4286 15C15.4286 17.8326 13.1183 20.1429 10.2857 20.1429C7.45313 20.1429 5.14286 17.8326 5.14286 15C5.14286 12.1674 7.45313 9.85714 10.2857 9.85714C13.1183 9.85714 15.4286 12.1674 15.4286 15ZM20.5714 15C20.5714 9.31473 15.971 4.71428 10.2857 4.71428C4.60045 4.71428 0 9.31473 0 15C0 16.2254 0.140625 17.4911 0.662946 18.596L7.99554 34.1451C8.39732 35.029 9.32143 35.5714 10.2857 35.5714C11.25 35.5714 12.1741 35.029 12.596 34.1451L19.9085 18.596C20.4308 17.4911 20.5714 16.2254 20.5714 15Z" fill="#FF214F"/>
</svg>
